<?xml version="1.0" standalone="no"?>
<svg xmlns="http://www.w3.org/2000/svg" viewBox="0 0 135.768 36" width="135.768" height="36"><g fill="#ffc107" color="#ffc107" transform="translate(0 4) scale(0.875)"><svg width="32.0" height="32.0" x="0.0" y="0.0" viewBox="0 0 32 32"><g display="none"><rect x="-332.667" y="-164.339" display="inline" fill="currentColor" width="416.333" height="207.667"></rect></g><g display="none"><g display="inline"><path d="M22.183,8.663c-1.538,0-2.785,1.247-2.785,2.785c0,1.538,1.247,2.785,2.785,2.785s2.785-1.247,2.785-2.785    C24.968,9.909,23.721,8.663,22.183,8.663z M22.183,13.232c-0.984,0-1.785-0.801-1.785-1.785s0.801-1.785,1.785-1.785    s1.785,0.801,1.785,1.785S23.167,13.232,22.183,13.232z"></path><path d="M10.005,20.215h2.907v2.405c0,1.705,1.388,3.092,3.093,3.092s3.093-1.387,3.093-3.092v-2.405h2.907v-1h-12V20.215z     M18.098,22.62c0,1.153-0.938,2.092-2.093,2.092s-2.093-0.938-2.093-2.092v-2.405h4.186V22.62z"></path><path d="M3.998,0l-4,4v24l4,4h24.004l4-4V4l-4-4H3.998z M4.412,1h17.229c-0.711,1.074-2.776,3.895-6.424,6.663L15.15,7.431    c-0.325-1.12-1.358-1.852-2.472-1.852c-0.236,0-0.475,0.033-0.712,0.102L7.417,7.003C6.06,7.398,5.273,8.83,5.667,10.187    l0.62,2.133c-1.702,0.653-3.473,1.147-5.289,1.467V7.854h3.94v-1h-3.94v-2.44L4.412,1z M31.002,6.854h-3.94v1h3.94v2.979h-3.94v1    h3.94v2.979h-3.94v1h3.94v11.774L27.588,31H4.412l-3.414-3.414v-12.78c1.911-0.326,3.776-0.84,5.569-1.523l0.337,1.16    c0.326,1.12,1.358,1.852,2.472,1.852c0.236,0,0.475-0.033,0.712-0.102l4.548-1.322c1.357-0.394,2.144-1.827,1.75-3.184    l-0.871-2.998c5.015-3.713,7.262-7.612,7.285-7.653L22.735,1h4.853l3.414,3.414V6.854z"></path></g></g><g><g><path d="M5.695,12.306L4.911,9.611C4.5,8.196,5.321,6.703,6.735,6.292l4.741-1.378c0.247-0.072,0.497-0.106,0.743-0.106    c1.161,0,2.237,0.763,2.576,1.93l0.199,0.685c3.879-2.877,6.286-5.85,7.41-7.423H3.998l-4,4v2.854H3.55v1h-3.552v2.979v3.25    C1.954,13.659,3.863,13.065,5.695,12.306z"></path></g><g><g><path d="M16.005,24.712c1.154,0,2.093-0.938,2.093-2.092v-2.405h-4.186v2.405C13.912,23.773,14.851,24.712,16.005,24.712z"></path></g><g><circle cx="22.183" cy="11.447" r="1.785"></circle></g><g><path d="M32.002,6.854V4l-4-4H23.62c-0.953,1.429-3.624,5.035-8.327,8.449l0.792,2.725c0.411,1.414-0.41,2.908-1.824,3.319     L9.52,15.871c-0.247,0.072-0.497,0.106-0.743,0.106c-1.161,0-2.237-0.763-2.576-1.93l-0.226-0.778     c-1.922,0.789-3.926,1.4-5.976,1.832v0.711V28l4,4h24.004l4-4V15.812H28.45v-1h3.552v-2.979H28.45v-1h3.552V7.854H28.45v-1     H32.002z M22.005,20.215h-2.907v2.405c0,1.705-1.388,3.092-3.093,3.092s-3.093-1.387-3.093-3.092v-2.405h-2.907v-1h12V20.215z      M22.183,14.232c-1.538,0-2.785-1.247-2.785-2.785c0-1.538,1.247-2.785,2.785-2.785s2.785,1.247,2.785,2.785     C24.968,12.985,23.721,14.232,22.183,14.232z"></path></g></g></g><g display="none"><g display="inline"><path fill="currentColor" d="M22.183,9.163c1.26,0,2.285,1.025,2.285,2.285s-1.025,2.285-2.285,2.285s-2.285-1.025-2.285-2.285    S20.923,9.163,22.183,9.163 M22.183,8.663c-1.538,0-2.785,1.247-2.785,2.785c0,1.538,1.247,2.785,2.785,2.785    c1.538,0,2.785-1.247,2.785-2.785C24.968,9.909,23.721,8.663,22.183,8.663L22.183,8.663z"></path></g><line display="inline" fill="currentColor" stroke="currentColor" stroke-width="0.5" stroke-miterlimit="10" x1="10.005" y1="19.714" x2="22.005" y2="19.714"></line><path display="inline" fill="currentColor" stroke="currentColor" stroke-width="0.5" stroke-miterlimit="10" d="M18.598,20.006v2.613   c0,1.426-1.167,2.593-2.593,2.593h0c-1.426,0-2.593-1.167-2.593-2.593v-2.613"></path><g display="inline"><g><g><g><path fill="currentColor" d="M6.808,12.107c-2.05,0.699-4.315,1.25-6.808,1.574l0.064,0.496c2.519-0.327,4.809-0.884,6.883-1.591       L6.808,12.107z"></path><path fill="currentColor" d="M22.755,0c-0.038,0.068-2.336,4.036-7.457,7.73c0,0.002,0.001,0.003,0.002,0.005l0.146,0.501       c5.32-3.795,7.706-7.921,7.745-7.991L22.755,0z"></path></g><g><path fill="currentColor" d="M13.069,6.314c0.917,0,1.736,0.613,1.992,1.491l1.237,4.256c0.318,1.096-0.314,2.246-1.409,2.565       l-4.548,1.322c-0.187,0.054-0.38,0.082-0.573,0.082c-0.917,0-1.736-0.613-1.992-1.491l-1.237-4.256       C6.385,9.754,6.448,9.196,6.715,8.71C6.982,8.224,7.42,7.871,7.948,7.718l4.548-1.322C12.683,6.342,12.876,6.314,13.069,6.314        M13.069,5.814c-0.236,0-0.475,0.033-0.712,0.102L7.808,7.238c-1.357,0.394-2.144,1.827-1.75,3.184l1.237,4.256       c0.325,1.12,1.358,1.852,2.472,1.852c0.236,0,0.475-0.033,0.712-0.102l4.548-1.322c1.357-0.394,2.144-1.827,1.75-3.184       l-1.237-4.256C15.215,6.546,14.183,5.814,13.069,5.814L13.069,5.814z"></path></g></g></g><g><g><g><path fill="currentColor" d="M27.795,0.5l3.707,3.707v23.586L27.795,31.5H4.205l-3.707-3.707V4.207L4.205,0.5H27.795 M28.002,0       H3.998l-4,4v24l4,4h24.004l4-4V4L28.002,0L28.002,0z"></path></g><g><g><line fill="currentColor" stroke="currentColor" stroke-width="0.5" stroke-miterlimit="10" x1="0.062" y1="7.354" x2="4.938" y2="7.354"></line></g><g><line fill="currentColor" stroke="currentColor" stroke-width="0.5" stroke-miterlimit="10" x1="27.062" y1="7.354" x2="31.938" y2="7.354"></line><line fill="currentColor" stroke="currentColor" stroke-width="0.5" stroke-miterlimit="10" x1="27.062" y1="11.333" x2="31.938" y2="11.333"></line><line fill="currentColor" stroke="currentColor" stroke-width="0.5" stroke-miterlimit="10" x1="27.062" y1="15.313" x2="31.938" y2="15.313"></line></g></g></g></g></g></g><g display="none"><g display="inline"><path fill="currentColor" d="M14.999,15.106l-4.548,1.322c-1.357,0.394-2.79-0.393-3.184-1.75L6.03,10.422    c-0.394-1.357,0.393-2.79,1.75-3.184l4.548-1.322c1.357-0.394,2.79,0.393,3.184,1.75l1.237,4.256    C17.143,13.278,16.356,14.711,14.999,15.106z"></path></g><circle display="inline" fill="currentColor" cx="22.178" cy="11.447" r="2.785"></circle><rect x="10" y="18.715" display="inline" fill="currentColor" width="12" height="2"></rect><path display="inline" fill="currentColor" d="M16,26.212c-1.981,0-3.593-1.611-3.593-3.592v-2.614h2v2.614   c0,0.878,0.715,1.592,1.593,1.592s1.593-0.714,1.593-1.592v-2.614h2v2.614C19.593,24.6,17.981,26.212,16,26.212z"></path><g display="inline"><path fill="currentColor" d="M20.552,1.369c-2.615,3.364-9.118,10.238-19.442,11.944v2.037C13.893,13.416,21.085,4.243,23.049,1.369    H20.552z"></path></g><g display="inline"><g><path fill="currentColor" d="M27.173,2l2.828,2.828v22.343L27.173,30H4.827l-2.828-2.828V4.828L4.827,2H27.173 M28.002,0H3.998l-4,4     v24l4,4h24.004l4-4V4L28.002,0L28.002,0z"></path></g><g><g><line fill="currentColor" stroke="currentColor" stroke-width="2" stroke-miterlimit="10" x1="0.062" y1="7.354" x2="4.938" y2="7.354"></line></g><g><line fill="currentColor" stroke="currentColor" stroke-width="2" stroke-miterlimit="10" x1="27.062" y1="7.354" x2="31.938" y2="7.354"></line><line fill="currentColor" stroke="currentColor" stroke-width="2" stroke-miterlimit="10" x1="27.062" y1="11.333" x2="31.938" y2="11.333"></line><line fill="currentColor" stroke="currentColor" stroke-width="2" stroke-miterlimit="10" x1="27.062" y1="15.313" x2="31.938" y2="15.313"></line></g></g></g></g></svg></g><path fill="#000000" fill-rule="nonzero" d="M3.68 0.37Q4.06 0.10 4.33 0.06Q4.61 0.02 5.60 0.02Q6.60 0.02 7.25 0.31Q7.90 0.60 7.90 1.46Q7.90 2.33 7.20 2.33L7.20 2.33Q7.06 2.33 6.38 2.08Q5.71 1.82 5.52 1.82L5.52 1.82Q4.68 1.82 4.51 2.83L4.51 2.83Q4.46 3.19 4.46 4.31Q4.46 5.42 4.46 6.14L4.46 6.14L6.14 6.14Q7.20 6.19 7.20 6.89L7.20 6.89Q7.20 7.90 5.76 7.94L5.76 7.94Q5.54 7.97 5.23 7.97Q4.92 7.97 4.51 7.94L4.51 7.94Q4.56 8.90 4.73 11.36Q4.90 13.82 4.90 16.15L4.90 16.15Q4.90 16.63 4.51 16.92Q4.13 17.21 3.72 17.21L3.72 17.21Q3.07 17.21 3.07 16.44L3.07 16.44Q3.07 14.28 2.90 12.24Q2.74 10.20 2.66 7.94L2.66 7.94Q0.50 7.94 0.14 7.51L0.14 7.51Q0 7.34 0 7.08L0 7.08Q0 6.46 0.52 6.26Q1.03 6.07 1.70 6.07Q2.38 6.07 2.66 6.07L2.66 6.07Q2.74 2.16 3.10 1.22L3.10 1.22Q3.31 0.65 3.68 0.37ZM15.72 5.98L15.72 5.98Q16.78 5.98 16.78 7.78L16.78 7.78Q16.78 7.97 16.78 8.18L16.78 8.18L16.73 9.86Q16.70 10.66 16.70 11.42L16.70 11.42L17.06 16.85Q17.06 17.45 15.84 17.45L15.84 17.45Q15.77 17.45 15.49 17.45Q15.22 17.45 15.11 17.23Q15 17.02 15.08 16.70Q15.17 16.39 15.02 16.01L15.02 16.01Q13.92 17.18 12.10 17.18L12.10 17.18Q8.71 17.18 8.71 11.95L8.71 11.95Q8.71 9.05 9.80 7.56Q10.90 6.07 12.94 6.07L12.94 6.07Q13.90 6.07 14.86 6.41L14.86 6.41Q15.17 5.98 15.72 5.98ZM13.22 8.16L13.22 8.16Q11.86 8.16 11.18 8.95Q10.51 9.74 10.51 11.86L10.51 11.86Q10.51 15.41 12.43 15.41L12.43 15.41Q12.94 15.41 13.55 14.95Q14.16 14.50 14.40 13.92L14.40 13.92Q14.86 12.62 14.86 11.09Q14.86 9.55 14.48 8.86Q14.11 8.16 13.22 8.16ZM18.10 11.57Q18.10 9.96 18.95 8.64Q19.80 7.32 21.12 6.66Q22.44 6 23.69 6Q24.94 6 25.69 6.30Q26.45 6.60 26.45 7.09Q26.45 7.58 26.17 8.08Q25.90 8.57 25.44 8.57L25.44 8.57Q25.27 8.57 24.52 8.29Q23.76 8.02 23.54 8.02L23.54 8.02Q22.15 8.02 21.17 9.04Q20.18 10.06 20.18 11.74Q20.18 13.42 20.72 14.24Q21.26 15.07 22.58 15.07L22.58 15.07Q23.11 15.07 24.40 14.46Q25.68 13.85 25.99 13.85Q26.30 13.85 26.50 14.04Q26.69 14.23 26.69 14.52L26.69 14.52Q26.69 15.10 25.96 15.73Q25.22 16.37 24.14 16.79Q23.06 17.21 22.20 17.21L22.20 17.21Q20.28 17.21 19.19 15.70Q18.10 14.18 18.10 11.57L18.10 11.57ZM31.20 6.07L31.20 6.07Q32.47 6.07 33.62 6.82Q34.78 7.56 34.78 8.65Q34.78 9.74 33.84 10.76Q32.90 11.78 31.34 12L31.34 12Q30.67 12.10 29.33 12.10L29.33 12.10Q29.59 14.14 30.36 14.78L30.36 14.78Q30.60 15.05 31.01 15.05L31.01 15.05Q32.50 15.05 33.50 14.10Q34.51 13.15 34.94 13.15L34.94 13.15Q35.14 13.15 35.52 13.51Q35.90 13.87 35.90 14.18L35.90 14.18Q35.90 14.81 34.39 15.98L34.39 15.98Q33.72 16.54 32.77 16.91Q31.82 17.28 31.01 17.28L31.01 17.28Q28.92 17.28 27.94 14.59L27.94 14.59Q27.31 12.94 27.31 10.94Q27.31 8.95 28.25 7.51Q29.18 6.07 31.20 6.07ZM31.32 7.73L31.32 7.73Q30.41 7.73 29.76 8.76L29.76 8.76Q29.52 9.12 29.30 10.39L29.30 10.39Q32.66 10.39 32.66 8.74L32.66 8.74Q32.66 7.73 31.32 7.73ZM37.70 9.02Q37.70 7.61 38.71 6.77Q39.72 5.93 41.05 5.93Q42.38 5.93 43.61 6.41Q44.83 6.89 44.83 7.68L44.83 7.68Q44.83 8.09 44.52 8.33Q44.21 8.57 43.98 8.57Q43.75 8.57 43.62 8.56Q43.49 8.54 42.66 8.11Q41.83 7.68 41.14 7.68Q40.44 7.68 39.95 8.03Q39.46 8.38 39.46 9.05Q39.46 9.72 40.02 10.10Q40.58 10.49 42 10.76Q43.42 11.04 44.17 11.54Q44.93 12.05 44.93 13.42L44.93 13.42Q44.93 15.41 43.88 16.24Q42.84 17.06 41.35 17.06Q39.86 17.06 38.82 16.66Q37.78 16.25 37.78 15.43L37.78 15.43Q37.78 14.50 38.71 14.50L38.71 14.50Q38.95 14.50 39.77 14.83Q40.58 15.17 41.39 15.17Q42.19 15.17 42.61 14.65Q43.03 14.14 43.03 13.46Q43.03 12.79 42.48 12.49Q41.93 12.19 40.80 12Q39.67 11.81 39.14 11.59L39.14 11.59Q37.70 11.02 37.70 9.02L37.70 9.02ZM47.14 5.98L47.14 5.98L48.34 6Q48.74 6 48.79 5.98L48.79 5.98L48.79 1.06Q48.82 0.65 49.20 0.36Q49.58 0.07 49.92 0.07Q50.26 0.07 50.46 0.29Q50.66 0.50 50.64 0.96Q50.62 1.42 50.62 5.95L50.62 5.95L53.42 5.86Q54.14 5.86 54.14 6.70L54.14 6.70Q54.14 7.32 53.77 7.63Q53.40 7.94 52.98 7.97Q52.56 7.99 52.15 7.99L52.15 7.99L50.69 7.97Q50.69 8.95 50.89 11.86Q51.10 14.76 51.22 15.61Q51.34 16.46 51.26 16.72Q51.19 16.97 51 17.06L51 17.06Q50.69 17.21 50.16 17.21Q49.63 17.21 49.54 16.63L49.54 16.63Q49.06 13.49 48.89 7.99L48.89 7.99Q48.67 8.02 47.23 8.02Q45.79 8.02 45.79 7.18L45.79 7.18Q45.79 5.98 47.14 5.98ZM57.89 13.68L57.89 13.68L57.91 16.15Q57.91 16.58 57.52 16.94Q57.12 17.30 56.74 17.30L56.74 17.30Q56.18 17.30 56.04 16.44L56.04 16.44Q56.02 16.25 55.85 12.92Q55.68 9.60 55.20 7.70L55.20 7.70Q54.98 6.79 54.98 6.62L54.98 6.62Q54.98 5.83 55.94 5.83L55.94 5.83Q56.35 5.83 56.59 6.14Q56.83 6.46 56.89 6.78Q56.95 7.10 57 7.66Q57.05 8.21 57.07 8.35L57.07 8.35Q57.58 7.15 58.58 6.55Q59.59 5.95 60.79 5.95L60.79 5.95Q62.76 5.95 62.76 6.96L62.76 6.96Q62.76 7.46 62.41 7.76Q62.06 8.06 61.61 8.06L61.61 8.06Q59.57 8.06 58.73 9.36Q57.89 10.66 57.89 13.68ZM67.49 6.07L67.49 6.07Q68.76 6.07 69.91 6.82Q71.06 7.56 71.06 8.65Q71.06 9.74 70.13 10.76Q69.19 11.78 67.63 12L67.63 12Q66.96 12.10 65.62 12.10L65.62 12.10Q65.88 14.14 66.65 14.78L66.65 14.78Q66.89 15.05 67.30 15.05L67.30 15.05Q68.78 15.05 69.79 14.10Q70.80 13.15 71.23 13.15L71.23 13.15Q71.42 13.15 71.81 13.51Q72.19 13.87 72.19 14.18L72.19 14.18Q72.19 14.81 70.68 15.98L70.68 15.98Q70.01 16.54 69.06 16.91Q68.11 17.28 67.30 17.28L67.30 17.28Q65.21 17.28 64.22 14.59L64.22 14.59Q63.60 12.94 63.60 10.94Q63.60 8.95 64.54 7.51Q65.47 6.07 67.49 6.07ZM67.61 7.73L67.61 7.73Q66.70 7.73 66.05 8.76L66.05 8.76Q65.81 9.12 65.59 10.39L65.59 10.39Q68.95 10.39 68.95 8.74L68.95 8.74Q68.95 7.73 67.61 7.73ZM74.18 5.98L74.18 5.98L75.38 6Q75.79 6 75.84 5.98L75.84 5.98L75.84 1.06Q75.86 0.65 76.25 0.36Q76.63 0.07 76.97 0.07Q77.30 0.07 77.51 0.29Q77.71 0.50 77.69 0.96Q77.66 1.42 77.66 5.95L77.66 5.95L80.47 5.86Q81.19 5.86 81.19 6.70L81.19 6.70Q81.19 7.32 80.82 7.63Q80.45 7.94 80.03 7.97Q79.61 7.99 79.20 7.99L79.20 7.99L77.74 7.97Q77.74 8.95 77.94 11.86Q78.14 14.76 78.26 15.61Q78.38 16.46 78.31 16.72Q78.24 16.97 78.05 17.06L78.05 17.06Q77.74 17.21 77.21 17.21Q76.68 17.21 76.58 16.63L76.58 16.63Q76.10 13.49 75.94 7.99L75.94 7.99Q75.72 8.02 74.28 8.02Q72.84 8.02 72.84 7.18L72.84 7.18Q72.84 5.98 74.18 5.98ZM81.50 11.57Q81.50 9.96 82.36 8.64Q83.21 7.32 84.53 6.66Q85.85 6 87.10 6Q88.34 6 89.10 6.30Q89.86 6.60 89.86 7.09Q89.86 7.58 89.58 8.08Q89.30 8.57 88.85 8.57L88.85 8.57Q88.68 8.57 87.92 8.29Q87.17 8.02 86.95 8.02L86.95 8.02Q85.56 8.02 84.58 9.04Q83.59 10.06 83.59 11.74Q83.59 13.42 84.13 14.24Q84.67 15.07 85.99 15.07L85.99 15.07Q86.52 15.07 87.80 14.46Q89.09 13.85 89.40 13.85Q89.71 13.85 89.90 14.04Q90.10 14.23 90.10 14.52L90.10 14.52Q90.10 15.10 89.36 15.73Q88.63 16.37 87.55 16.79Q86.47 17.21 85.61 17.21L85.61 17.21Q83.69 17.21 82.60 15.70Q81.50 14.18 81.50 11.57L81.50 11.57ZM93.72 9.41L93.72 9.41L93.91 15.07Q93.91 16.13 93.82 16.30L93.82 16.30Q93.77 16.73 93.54 16.97Q93.31 17.21 92.66 17.21L92.66 17.21Q92.35 17.21 92.16 16.81Q91.97 16.42 91.94 15.91L91.94 15.91Q91.78 11.69 91.50 7.98Q91.22 4.27 91.22 1.08L91.22 1.08Q91.22 0.58 91.56 0.29Q91.90 0 92.35 0L92.35 0Q93.02 0 93.16 1.15Q93.29 2.30 93.32 4.03Q93.36 5.76 93.41 6.55L93.41 6.55Q94.61 5.93 95.81 5.93L95.81 5.93Q98.59 5.93 99.34 8.38L99.34 8.38Q99.77 9.77 99.77 11.95L99.77 11.95Q99.77 12.67 99.64 14.22Q99.50 15.77 99.48 16.22Q99.46 16.68 99.08 16.93Q98.71 17.18 98.28 17.18L98.28 17.18Q97.61 17.18 97.61 16.46L97.61 16.46L97.78 12.29Q97.78 11.76 97.73 10.54Q97.68 9.31 97.24 8.59Q96.79 7.87 95.69 7.87L95.69 7.87Q93.72 7.87 93.72 9.41Z" transform="translate(36, 9.408)"></path></svg>